<svg id="visual" viewBox="0 0 960 540" width="960" height="540" xmlns="http://www.w3.org/2000/svg" xmlns:xlink="http://www.w3.org/1999/xlink" version="1.1"><path d="M0 511L32 513.5C64 516 128 521 192 522.8C256 524.7 320 523.3 384 515.3C448 507.3 512 492.7 576 491.3C640 490 704 502 768 495.8C832 489.7 896 465.3 928 453.2L960 441L960 541L928 541C896 541 832 541 768 541C704 541 640 541 576 541C512 541 448 541 384 541C320 541 256 541 192 541C128 541 64 541 32 541L0 541Z" fill="#ffe7c2"></path></svg>