<svg id="visual" viewBox="0 0 900 600" width="900" height="600" xmlns="http://www.w3.org/2000/svg" xmlns:xlink="http://www.w3.org/1999/xlink" version="1.1"><rect x="0" y="0" width="900" height="600" fill="#ffefd7"></rect><path d="M0 456L25 449C50 442 100 428 150 416.8C200 405.7 250 397.3 300 400.2C350 403 400 417 450 433C500 449 550 467 600 450.5C650 434 700 383 750 386C800 389 850 446 875 474.5L900 503L900 601L875 601C850 601 800 601 750 601C700 601 650 601 600 601C550 601 500 601 450 601C400 601 350 601 300 601C250 601 200 601 150 601C100 601 50 601 25 601L0 601Z" fill="#f9f9f9"></path></svg>