<svg id="visual" viewBox="0 0 1900 200" width="1900" height="200" xmlns="http://www.w3.org/2000/svg" xmlns:xlink="http://www.w3.org/1999/xlink" version="1.1"><path d="M0 116L52.8 100.2C105.7 84.3 211.3 52.7 316.8 56.8C422.3 61 527.7 101 633.2 106.3C738.7 111.7 844.3 82.3 950 74C1055.7 65.7 1161.3 78.3 1266.8 71.2C1372.3 64 1477.7 37 1583.2 50C1688.7 63 1794.3 116 1847.2 142.5L1900 169L1900 0L1847.2 0C1794.3 0 1688.7 0 1583.2 0C1477.7 0 1372.3 0 1266.8 0C1161.3 0 1055.7 0 950 0C844.3 0 738.7 0 633.2 0C527.7 0 422.3 0 316.8 0C211.3 0 105.7 0 52.8 0L0 0Z" fill="#ffe7c2"></path></svg>