<svg width="0" height="0" class="hidden">
  <symbol fill="none" xmlns="http://www.w3.org/2000/svg" viewBox="0 0 92 93" id="linkedin">
    <rect y="0.561523" width="91.5618" height="91.5618" rx="45.7809" fill="#006699"></rect>
    <path d="M35.2487 64.8957V40.1622H27.0349V64.8957H35.2495H35.2487ZM31.1435 36.7858C34.0072 36.7858 35.79 34.8866 35.79 32.5131C35.7364 30.0855 34.0072 28.2393 31.198 28.2393C28.3868 28.2393 26.5508 30.0855 26.5508 32.5129C26.5508 34.8864 28.333 36.7856 31.0897 36.7856H31.1429L31.1435 36.7858ZM39.7951 64.8957H48.0082V51.0849C48.0082 50.3466 48.0618 49.6065 48.2787 49.0792C48.8722 47.6016 50.2237 46.0722 52.4932 46.0722C55.4646 46.0722 56.6539 48.3401 56.6539 51.6654V64.8957H64.8668V50.7143C64.8668 43.1175 60.8152 39.5823 55.4114 39.5823C50.981 39.5823 49.0352 42.0608 47.9541 43.7489H48.0088V40.1631H39.7955C39.9027 42.4833 39.7949 64.8965 39.7949 64.8965L39.7951 64.8957Z" fill="white"></path>
  </symbol>
  <symbol fill="none" xmlns="http://www.w3.org/2000/svg" viewBox="0 0 93 92" id="github">
    <rect x="0.876953" y="0.0712891" width="91.5618" height="91.5618" rx="45.7809" fill="#1B1F23"></rect>
    <path fill-rule="evenodd" clip-rule="evenodd" d="M46.6117 21.0713C32.3932 21.0713 20.877 32.5418 20.877 46.7036C20.877 58.0459 28.2435 67.626 38.4731 71.0223C39.7598 71.2466 40.2423 70.4776 40.2423 69.8048C40.2423 69.196 40.2101 67.1775 40.2101 65.0308C33.7443 66.2163 32.0715 63.4608 31.5569 62.019C31.2673 61.282 30.0128 59.0072 28.919 58.3984C28.0183 57.9178 26.7316 56.7323 28.8869 56.7002C30.9135 56.6682 32.3611 58.5586 32.8436 59.3276C35.1597 63.2045 38.8591 62.1151 40.3388 61.4422C40.564 59.7761 41.2395 58.6547 41.9794 58.0139C36.2534 57.3731 30.2701 55.1623 30.2701 45.3579C30.2701 42.5704 31.2673 40.2635 32.9079 38.4692C32.6506 37.8284 31.7499 35.2011 33.1653 31.6767C33.1653 31.6767 35.3206 31.0038 40.2423 34.304C42.3011 33.7273 44.4885 33.4389 46.676 33.4389C48.8634 33.4389 51.0509 33.7273 53.1097 34.304C58.0314 30.9718 60.1867 31.6767 60.1867 31.6767C61.6021 35.2011 60.7014 37.8284 60.4441 38.4692C62.0846 40.2635 63.0819 42.5384 63.0819 45.3579C63.0819 55.1943 57.0664 57.3731 51.3404 58.0139C52.2733 58.8149 53.0775 60.3529 53.0775 62.7559C53.0775 66.1842 53.0453 68.9397 53.0453 69.8048C53.0453 70.4776 53.5279 71.2786 54.8146 71.0223C64.9798 67.626 72.3464 58.0139 72.3464 46.7036C72.3464 32.5418 60.8301 21.0713 46.6117 21.0713Z" fill="white"></path>
  </symbol>
  <symbol fill="none" xmlns="http://www.w3.org/2000/svg" viewBox="0 0 92 93" id="telegram">
    <rect y="0.561523" width="91.5618" height="91.5618" rx="45.7809" fill="#34AADF"></rect>
    <path d="M25.4728 44.7205C25.4728 44.7205 44.1008 36.8747 50.5613 34.112C53.0379 33.007 61.4366 29.4708 61.4366 29.4708C61.4366 29.4708 65.313 27.9238 64.9899 31.6809C64.8822 33.228 64.0208 38.6427 63.1595 44.4995C61.8673 52.7874 60.4675 61.8488 60.4675 61.8488C60.4675 61.8488 60.2522 64.3905 58.4217 64.8325C56.5912 65.2745 53.5762 63.2855 53.0379 62.8433C52.6071 62.5119 44.9622 57.5391 42.1626 55.108C41.4088 54.445 40.5475 53.119 42.2702 51.5719C46.1466 47.9252 50.7766 43.3945 53.5762 40.5214C54.8684 39.1953 56.1604 36.1011 50.7766 39.8583C43.1317 45.2731 35.5944 50.3563 35.5944 50.3563C35.5944 50.3563 33.8715 51.4613 30.6413 50.4667C27.4109 49.4723 23.6422 48.1462 23.6422 48.1462C23.6422 48.1462 21.0582 46.4886 25.4728 44.7205Z" fill="white"></path>
  </symbol>
  <symbol fill="none" xmlns="http://www.w3.org/2000/svg" viewBox="0 0 24 24" id="code">
    <g clip-path="url(#clip0_104_138)">
      <path d="M9.4 16.6L4.8 12L9.4 7.4L8 6L2 12L8 18L9.4 16.6ZM14.6 16.6L19.2 12L14.6 7.4L16 6L22 12L16 18L14.6 16.6Z" fill="#211B12"></path>
    </g>
    <defs>
      <clipPath id="clip0_104_138">
        <rect width="24" height="24" fill="white"></rect>
      </clipPath>
    </defs>
  </symbol>
  <symbol fill="none" xmlns="http://www.w3.org/2000/svg" viewBox="0 0 24 24" id="check">
    <g clip-path="url(#clip0_104_168)">
      <path d="M19.77 5.02995L21.17 6.42995L8.43 19.17L2.83 13.57L4.23 12.17L8.43 16.37L19.77 5.02995ZM19.77 2.19995L8.43 13.54L4.23 9.33995L0 13.57L8.43 22L24 6.42995L19.77 2.19995Z" fill="#211B12"></path>
    </g>
    <defs>
      <clipPath id="clip0_104_168">
        <rect width="24" height="24" fill="white"></rect>
      </clipPath>
    </defs>
  </symbol>
  <symbol xmlns="http://www.w3.org/2000/svg" viewBox="0 0 24 24" id="cv">
    <g clip-path="url(#clip0_106_203)">
      <path d="M16.5 6V17.5C16.5 19.71 14.71 21.5 12.5 21.5C10.29 21.5 8.5 19.71 8.5 17.5V5C8.5 3.62 9.62 2.5 11 2.5C12.38 2.5 13.5 3.62 13.5 5V15.5C13.5 16.05 13.05 16.5 12.5 16.5C11.95 16.5 11.5 16.05 11.5 15.5V6H10V15.5C10 16.88 11.12 18 12.5 18C13.88 18 15 16.88 15 15.5V5C15 2.79 13.21 1 11 1C8.79 1 7 2.79 7 5V17.5C7 20.54 9.46 23 12.5 23C15.54 23 18 20.54 18 17.5V6H16.5Z"></path>
    </g>
    <defs>
      <clipPath id="clip0_106_203">
        <rect width="24" height="24"></rect>
      </clipPath>
    </defs>
  <symbol version="1.1" id="down-shevrone" xmlns="http://www.w3.org/2000/svg" xmlns:xlink="http://www.w3.org/1999/xlink" x="0px" y="0px" xml:space="preserve" viewBox="0 0 201.611 201.611">
    <g>
      <polygon points="100.809,155.39 0,51.596 5.536,46.221 100.809,144.317 196.085,46.221 201.611,51.596"></polygon>
    </g>
  </symbol>
</svg>